<svg xmlns="http://www.w3.org/2000/svg" viewBox="0 0 512 512">
  <rect width="512" height="512" fill="none"/>
  <g transform="translate(0, 4) scale(0.25)">
    <path d="M 730.821 444.43 C 741.486 443.543 757.21 443.912 768.106 443.919 L 831.781 443.943 L 1034.87 443.921 L 1227.39 443.912 C 1321.55 443.889 1383.06 438.574 1465.33 494.671 C 1532.24 540.028 1578.43 610.055 1593.79 689.408 C 1604.54 747.307 1593.54 837.75 1588.46 898.48 L 1572.44 1096.6 L 1559.46 1252.44 C 1557 1281.96 1554.6 1325.82 1548.9 1353.2 C 1541.02 1389.32 1526.11 1423.54 1505.04 1453.92 C 1459.76 1518.84 1395.2 1557.1 1317.87 1570.69 C 1311.45 1571.64 1304.98 1572.31 1298.49 1572.69 C 1268.45 1574.73 1225.73 1573.39 1194.36 1573.42 L 998.559 1573.4 L 841.585 1573.42 C 802.339 1573.45 754.87 1575.6 717.221 1568.01 C 669.809 1558.37 625.75 1536.48 589.425 1504.52 C 550.659 1470.77 522.014 1426.93 506.676 1377.88 C 494.266 1337.69 494.113 1302.73 490.626 1261.32 L 480.176 1136.46 L 461.086 901.927 C 457.615 859.956 454.362 817.666 450.524 775.748 C 435.24 608.787 560.178 454.883 730.821 444.43 z" fill="#F5F2F0"/>
    <path d="M 735.211 527.408 C 770.501 525.539 819.989 527.008 856.4 527.012 L 1090.67 527.035 L 1240.71 527.01 C 1265.39 527.004 1306.29 525.83 1329.52 528.864 C 1360.45 533.211 1390.07 544.229 1416.31 561.155 C 1465.74 593.007 1500.4 643.28 1512.59 700.804 C 1516.22 717.804 1517.84 744.183 1516.84 762.137 C 1514.42 806.087 1510.29 850.921 1506.63 894.81 L 1489.73 1103.49 L 1477.22 1250.32 C 1474.96 1276.85 1474.04 1308.85 1468.9 1334.49 C 1452.97 1414 1390.35 1470.66 1313.89 1486.72 C 1281.72 1492.87 1224.44 1490.01 1189.79 1490.01 L 993.544 1490.01 L 837.261 1490.04 C 809.132 1490.07 762.578 1491.53 736.568 1486.95 C 702.626 1480.79 670.915 1465.76 644.648 1443.4 C 616.234 1419.02 595.357 1387.05 584.464 1351.24 C 576.401 1324.43 575.216 1291.54 572.831 1263.21 L 563.923 1155.99 L 533.696 788.496 C 528.271 717.018 535.531 659.344 584.913 602.297 C 622.916 558.155 677.085 531.164 735.211 527.408 z" fill="#F5F2F0"/>
    <path d="M 1002.66 604.425 C 1006.03 604.179 1009.41 604.029 1012.79 603.975 C 1103.35 601.81 1190.92 636.453 1255.5 699.987 C 1317.52 759.845 1356.69 845.469 1358.37 932.05 C 1358.79 944.68 1356.14 958.08 1346.62 967.164 C 1329.07 983.734 1297.08 979.007 1286.63 956.618 C 1280.31 943.081 1282.46 927.436 1280.74 912.795 C 1265.74 785.034 1163.39 691.807 1036.34 682.422 C 1025.08 681.17 1006.11 682.215 995.146 683.273 C 885.556 693.848 789.12 774.601 763.907 882.764 C 761.463 893.245 759.68 903.869 758.57 914.574 C 756.827 931.22 759.03 951.263 747.802 964.086 C 741.155 971.678 731.989 976.249 721.97 977.069 C 711.519 977.955 701.159 974.539 693.285 967.61 C 675.901 952.31 680.626 922.488 683.171 901.591 C 691.67 835.103 719.805 772.66 763.979 722.246 C 826.433 650.617 908.075 610.934 1002.66 604.425 z" fill="#FF6F61"/>
    <path d="M 911.156 759.116 C 938.768 756.509 942.616 775.668 953.794 796.891 L 980.369 847.108 C 1003.22 889.638 1031.83 938.898 1052.55 981.573 C 1055.96 982.261 1059.32 982.975 1062.66 983.928 C 1085.75 990.485 1105.22 1006.07 1116.67 1027.17 C 1127.84 1047.85 1130.24 1072.16 1123.34 1094.63 C 1115.57 1119.53 1099.9 1135.66 1077.15 1147.54 C 1070.23 1150.84 1060.71 1153.53 1053.15 1154.64 C 1030 1158.2 1006.39 1152.23 987.718 1138.09 C 969.173 1123.97 957.044 1103.02 954.031 1079.91 C 950.404 1052.25 958.947 1031.01 975.512 1009.64 C 956.994 958.773 937.926 908.106 918.313 857.65 L 901.349 813.914 C 893.12 792.69 882.027 770.492 911.156 759.116 z" fill="#3C2F2F"/>
  </g>
</svg>